# xmcd
#
# Track frame offsets:
#	150
#	13112
#	24379
#	36883
#	48424
#	60165
#	72251
#	85098
#	96644
#	107347
#	118214
#	128675
#	140355
#	152028
#	163333
#	175418
#	188472
#	198947
#	211337
#	224570
#	236135
#	247923
#	260459
#	272449
#	284102
#	295757
#
# Disc length: 4077 seconds
# Revision: 0
# Processed by: cddbd v1.5.2PL0 Copyright (c) Steve Scherf et al.
# Submitted via: dBpowerAMP V12.0
#
DISCID=7e0feb1a
DTITLE=Roy Acuff - Singles
DYEAR=1953
DGENRE=Classic Country
TTITLE0=What Will I Do
TTITLE1=Tied Down
TTITLE2=Is It Love Or Is It Lies
TTITLE3=Lonesome Joe
TTITLE4=Sixteen Chickens And A Tambourine
TTITLE5=Don't Say Goodbye
TTITLE6=Swamp Lily
TTITLE7=Sweep Around Your Back Door
TTITLE8=Whoa Mule
TTITLE9=Rushing Around
TTITLE10=Sunshine Special
TTITLE11=I Closed My Heart's Door
TTITLE12=I'm Planting A Rose
TTITLE13=Streamline Heartbreaker
TTITLE14=Don't Judge Neighbor
TTITLE15=The Thief Upon The Tree
TTITLE16=That's What Makes The Jukebox Play
TTITLE17=The Night Spots (Of The Town)
TTITLE18=Little Moses
TTITLE19=Oh Those Tombs
TTITLE20=Crazy Worried Mind
TTITLE21=Along The China Coast
TTITLE22=Mother Hold Me Tight
TTITLE23=Goodbye Mr Brown
TTITLE24=It's Hard To Love
TTITLE25=I Like Mountain Music
EXTD=
EXTT0=
EXTT1=
EXTT2=
EXTT3=
EXTT4=
EXTT5=
EXTT6=
EXTT7=
EXTT8=
EXTT9=
EXTT10=
EXTT11=
EXTT12=
EXTT13=
EXTT14=
EXTT15=
EXTT16=
EXTT17=
EXTT18=
EXTT19=
EXTT20=
EXTT21=
EXTT22=
EXTT23=
EXTT24=
EXTT25=
PLAYORDER=
